<svg xmlns="http://www.w3.org/2000/svg" role="img" width="24" height="24" style=""><rect id="backgroundrect" width="100%" height="100%" x="0" y="0" fill="none" stroke="none"/><defs><linearGradient id="svg_2" x2="1" y2="0" spreadMethod="pad" x1="0" y1="1"><stop stop-color="#db2dee" stop-opacity="1" offset="0"/><stop stop-color="#24d211" stop-opacity="1" offset="0.98046875"/></linearGradient><filter id="f205" xmlns:inkscape="http://www.inkscape.org/namespaces/inkscape" inkscape:label="Clean edges" inkscape:menu="ABCs" inkscape:menu-tooltip="Removes or decreases glows and jaggeries around objects edges after applying some filters" height="1" width="1" y="0" x="0" color-interpolation-filters="sRGB">
            <feGaussianBlur result="result6" stdDeviation=".4"/>
            <feComposite in2="result6" operator="in" in="SourceGraphic" result="result7"/>
            <feComposite operator="in" in2="result7" result="result8" in="result7"/>
        </filter><linearGradient id="svg_3" spreadMethod="pad" x1="0.13671875" y1="0.859375" x2="0.96875" y2="0.09765625"><stop stop-color="#fce955" stop-opacity="1" offset="0"/><stop stop-color="#0316aa" stop-opacity="1" offset="1"/></linearGradient></defs><title>Python</title><g class="currentLayer" style=""><title>Layer 1</title><path d="M14.959350481629372,0.17999739602208148 l0.9,0.2 l0.7300000000000003,0.26 l0.5900000000000003,0.30000000000000016 l0.45,0.3200000000000002 l0.3400000000000003,0.3400000000000003 l0.25,0.3400000000000003 l0.1600000000000001,0.3300000000000002 l0.1,0.30000000000000016 l0.04000000000000002,0.26 l0.02000000000000001,0.2 l-0.010000000000000005,0.13 V8.499997396022081 l-0.05000000000000003,0.6300000000000003 l-0.13,0.55 l-0.21000000000000008,0.46 l-0.26,0.38000000000000017 l-0.30000000000000016,0.31000000000000016 l-0.3300000000000002,0.25 l-0.35000000000000014,0.19000000000000009 l-0.35000000000000014,0.14 l-0.3300000000000002,0.1 l-0.30000000000000016,0.07 l-0.26,0.04000000000000002 l-0.21000000000000008,0.02000000000000001 H9.479350481629371 l-0.6900000000000006,0.05000000000000003 l-0.5900000000000003,0.14 l-0.5,0.22000000000000008 l-0.41000000000000014,0.27 l-0.3300000000000002,0.3200000000000002 l-0.27,0.35000000000000014 l-0.2,0.36000000000000015 l-0.15000000000000008,0.37000000000000016 l-0.1,0.35000000000000014 l-0.07,0.3200000000000002 l-0.04000000000000002,0.27 l-0.02000000000000001,0.21000000000000008 v3.06 H3.8793504816293716 l-0.21000000000000008,-0.03000000000000002 l-0.28,-0.07 l-0.3200000000000002,-0.12000000000000002 l-0.35000000000000014,-0.18000000000000008 l-0.36000000000000015,-0.26 l-0.36000000000000015,-0.36000000000000015 l-0.35000000000000014,-0.46 l-0.3200000000000002,-0.5900000000000003 l-0.28,-0.7300000000000003 l-0.21000000000000008,-0.8800000000000003 l-0.14,-1.05 l-0.05000000000000003,-1.23 l0.06000000000000003,-1.22 l0.1600000000000001,-1.04 l0.24000000000000007,-0.8700000000000003 l0.3200000000000002,-0.7100000000000003 l0.36000000000000015,-0.5700000000000003 l0.4,-0.44000000000000017 l0.42000000000000015,-0.3300000000000002 l0.42000000000000015,-0.24000000000000007 l0.4,-0.1600000000000001 l0.36000000000000015,-0.1 l0.3200000000000002,-0.05000000000000003 l0.24000000000000007,-0.010000000000000005 h0.1600000000000001 l0.06000000000000003,0.010000000000000005 h8.16 v-0.8300000000000003 H6.889350481629371 l-0.010000000000000005,-2.75 l-0.02000000000000001,-0.37000000000000016 l0.05000000000000003,-0.3400000000000003 l0.11000000000000004,-0.31000000000000016 l0.17,-0.28 l0.25,-0.26 l0.31000000000000016,-0.23 l0.38000000000000017,-0.2 l0.44000000000000017,-0.18000000000000008 l0.51,-0.15000000000000008 l0.5800000000000003,-0.12000000000000002 l0.6400000000000003,-0.1 l0.7100000000000003,-0.06000000000000003 l0.77,-0.04000000000000002 l0.8400000000000003,-0.02000000000000001 l1.27,0.05000000000000003 zm-6.3,1.98 l-0.23,0.3300000000000002 l-0.08000000000000004,0.41000000000000014 l0.08000000000000004,0.41000000000000014 l0.23,0.3400000000000003 l0.3300000000000002,0.22000000000000008 l0.41000000000000014,0.09000000000000007 l0.41000000000000014,-0.09000000000000007 l0.3300000000000002,-0.22000000000000008 l0.23,-0.3400000000000003 l0.08000000000000004,-0.41000000000000014 l-0.08000000000000004,-0.41000000000000014 l-0.23,-0.3300000000000002 l-0.3300000000000002,-0.22000000000000008 l-0.41000000000000014,-0.09000000000000007 l-0.41000000000000014,0.09000000000000007 zm13.09,3.95 l0.28,0.06000000000000003 l0.3200000000000002,0.12000000000000002 l0.35000000000000014,0.18000000000000008 l0.36000000000000015,0.27 l0.36000000000000015,0.35000000000000014 l0.35000000000000014,0.47000000000000014 l0.3200000000000002,0.5900000000000003 l0.28,0.7300000000000003 l0.21000000000000008,0.8800000000000003 l0.14,1.04 l0.05000000000000003,1.23 l-0.06000000000000003,1.23 l-0.1600000000000001,1.04 l-0.24000000000000007,0.8600000000000003 l-0.3200000000000002,0.7100000000000003 l-0.36000000000000015,0.5700000000000003 l-0.4,0.45 l-0.42000000000000015,0.3300000000000002 l-0.42000000000000015,0.24000000000000007 l-0.4,0.1600000000000001 l-0.36000000000000015,0.09000000000000007 l-0.3200000000000002,0.05000000000000003 l-0.24000000000000007,0.02000000000000001 l-0.1600000000000001,-0.010000000000000005 h-8.22 v0.8200000000000003 h5.84 l0.010000000000000005,2.7600000000000002 l0.02000000000000001,0.36000000000000015 l-0.05000000000000003,0.3400000000000003 l-0.11000000000000004,0.31000000000000016 l-0.17,0.29000000000000015 l-0.25,0.25 l-0.31000000000000016,0.24000000000000007 l-0.38000000000000017,0.2 l-0.44000000000000017,0.17 l-0.51,0.15000000000000008 l-0.5800000000000003,0.13 l-0.6400000000000003,0.09000000000000007 l-0.7100000000000003,0.07 l-0.77,0.04000000000000002 l-0.8400000000000003,0.010000000000000005 l-1.27,-0.04000000000000002 l-1.07,-0.14 l-0.9,-0.2 l-0.7300000000000003,-0.25 l-0.5900000000000003,-0.30000000000000016 l-0.45,-0.3300000000000002 l-0.3400000000000003,-0.3400000000000003 l-0.25,-0.3400000000000003 l-0.1600000000000001,-0.3300000000000002 l-0.1,-0.30000000000000016 l-0.04000000000000002,-0.25 l-0.02000000000000001,-0.2 l0.010000000000000005,-0.13 v-5.34 l0.05000000000000003,-0.6400000000000003 l0.13,-0.54 l0.21000000000000008,-0.46 l0.26,-0.38000000000000017 l0.30000000000000016,-0.3200000000000002 l0.3300000000000002,-0.24000000000000007 l0.35000000000000014,-0.2 l0.35000000000000014,-0.14 l0.3300000000000002,-0.1 l0.30000000000000016,-0.06000000000000003 l0.26,-0.04000000000000002 l0.21000000000000008,-0.02000000000000001 l0.13,-0.010000000000000005 h5.84 l0.6900000000000006,-0.05000000000000003 l0.5900000000000003,-0.14 l0.5,-0.21000000000000008 l0.41000000000000014,-0.28 l0.3300000000000002,-0.3200000000000002 l0.27,-0.35000000000000014 l0.2,-0.36000000000000015 l0.15000000000000008,-0.36000000000000015 l0.1,-0.35000000000000014 l0.07,-0.3200000000000002 l0.04000000000000002,-0.28 l0.02000000000000001,-0.21000000000000008 V6.069997396022082 h2.09 l0.14,0.010000000000000005 zm-6.47,14.25 l-0.23,0.3300000000000002 l-0.08000000000000004,0.41000000000000014 l0.08000000000000004,0.41000000000000014 l0.23,0.3300000000000002 l0.3300000000000002,0.23 l0.41000000000000014,0.08000000000000004 l0.41000000000000014,-0.08000000000000004 l0.3300000000000002,-0.23 l0.23,-0.3300000000000002 l0.08000000000000004,-0.41000000000000014 l-0.08000000000000004,-0.41000000000000014 l-0.23,-0.3300000000000002 l-0.3300000000000002,-0.23 l-0.41000000000000014,-0.08000000000000004 l-0.41000000000000014,0.08000000000000004 z" id="svg_1" class="selected" fill="#e94b8f" fill-opacity="1" filter="" stroke="none"/></g></svg>